<?xml version="1.0"?>
<svg version="1.1" xmlns="http://www.w3.org/2000/svg" width="236" height="60" style=""><path fill="#" d="M35.408203125,51.5859375l-5.361328125,0l0-11.478515625q0-2.126953125-0.7119140625-3.1904296875t-2.2412109375-1.0634765625q-2.056640625,0-2.98828125,1.51171875t-0.931640625,4.974609375l0,9.24609375l-5.361328125,0l0-19.65234375l4.095703125,0l0.720703125,2.513671875l0.298828125,0q0.791015625-1.353515625,2.28515625-2.1181640625t3.427734375-0.7646484375q4.412109375,0,5.9765625,2.8828125l0.474609375,0q0.791015625-1.37109375,2.3291015625-2.126953125t3.4716796875-0.755859375q3.33984375,0,5.0537109375,1.7138671875t1.7138671875,5.4931640625l0,12.814453125l-5.37890625,0l0-11.478515625q0-2.126953125-0.7119140625-3.1904296875t-2.2412109375-1.0634765625q-1.96875,0-2.9443359375,1.40625t-0.9755859375,4.46484375l0,9.861328125z M55.40806640625,26.853515625q0-2.619140625,2.91796875-2.619140625t2.91796875,2.619140625q0,1.248046875-0.7294921875,1.9423828125t-2.1884765625,0.6943359375q-2.91796875,0-2.91796875-2.63671875z M60.99791015625,51.5859375l-5.361328125,0l0-19.65234375l5.361328125,0l0,19.65234375z M77.3766796875,47.666015625q1.40625,0,3.375-0.615234375l0,3.990234375q-2.00390625,0.896484375-4.921875,0.896484375q-3.216796875,0-4.6845703125-1.6259765625t-1.4677734375-4.8779296875l0-9.474609375l-2.56640625,0l0-2.267578125l2.953125-1.79296875l1.546875-4.1484375l3.427734375,0l0,4.18359375l5.501953125,0l0,4.025390625l-5.501953125,0l0,9.474609375q0,1.142578125,0.6416015625,1.6875t1.6962890625,0.544921875z M102.42146484375,51.5859375l-14.80078125,0l0-25.69921875l14.80078125,0l0,4.46484375l-9.3515625,0l0,5.642578125l8.701171875,0l0,4.46484375l-8.701171875,0l0,6.626953125l9.3515625,0l0,4.5z M127.976015625,51.5859375l-5.361328125,0l0-11.478515625q0-2.126953125-0.755859375-3.1904296875t-2.408203125-1.0634765625q-2.25,0-3.251953125,1.5029296875t-1.001953125,4.9833984375l0,9.24609375l-5.361328125,0l0-19.65234375l4.095703125,0l0.720703125,2.513671875l0.298828125,0q0.896484375-1.423828125,2.4697265625-2.1533203125t3.5771484375-0.7294921875q3.427734375,0,5.203125,1.8544921875t1.775390625,5.3525390625l0,12.814453125z M153.07353515625,31.93359375l0,2.724609375l-3.076171875,0.791015625q0.84375,1.318359375,0.84375,2.953125q0,3.1640625-2.2060546875,4.9306640625t-6.1259765625,1.7666015625l-0.966796875-0.052734375l-0.791015625-0.087890625q-0.826171875,0.6328125-0.826171875,1.40625q0,1.16015625,2.953125,1.16015625l3.33984375,0q3.234375,0,4.9306640625,1.388671875t1.6962890625,4.078125q0,3.4453125-2.8740234375,5.34375t-8.2529296875,1.8984375q-4.11328125,0-6.2841796875-1.4326171875t-2.1708984375-4.0166015625q0-1.775390625,1.107421875-2.970703125t3.251953125-1.705078125q-0.826171875-0.3515625-1.44140625-1.1513671875t-0.615234375-1.6962890625q0-1.125,0.650390625-1.8720703125t1.880859375-1.4677734375q-1.546875-0.66796875-2.4521484375-2.14453125t-0.9052734375-3.48046875q0-3.216796875,2.091796875-4.974609375t5.9765625-1.7578125q0.826171875,0,1.9599609375,0.1494140625t1.4501953125,0.2197265625l6.85546875,0z M137.90361328125,54.36328125q0,1.107421875,1.0634765625,1.740234375t2.9794921875,0.6328125q2.8828125,0,4.517578125-0.791015625t1.634765625-2.162109375q0-1.107421875-0.966796875-1.529296875t-2.98828125-0.421875l-2.77734375,0q-1.4765625,0-2.4697265625,0.6943359375t-0.9931640625,1.8369140625z M139.85478515625,38.3671875q0,1.599609375,0.7294921875,2.53125t2.2236328125,0.931640625q1.51171875,0,2.21484375-0.931640625t0.703125-2.53125q0-3.55078125-2.91796875-3.55078125q-2.953125,0-2.953125,3.55078125z M166.9210546875,35.37890625q-1.705078125,0-2.671875,1.0810546875t-1.107421875,3.0673828125l7.5234375,0q-0.03515625-1.986328125-1.037109375-3.0673828125t-2.70703125-1.0810546875z M167.6769140625,51.9375q-4.74609375,0-7.41796875-2.619140625t-2.671875-7.41796875q0-4.939453125,2.4697265625-7.6376953125t6.8291015625-2.6982421875q4.166015625,0,6.486328125,2.373046875t2.3203125,6.556640625l0,2.6015625l-12.673828125,0q0.087890625,2.28515625,1.353515625,3.568359375t3.55078125,1.283203125q1.775390625,0,3.357421875-0.369140625t3.3046875-1.177734375l0,4.1484375q-1.40625,0.703125-3.005859375,1.0458984375t-3.90234375,0.3427734375z M187.88771484375,51.5859375l-5.361328125,0l0-27.3515625l5.361328125,0l0,27.3515625z M209.698125,45.75q0,3.0234375-2.1005859375,4.60546875t-6.2841796875,1.58203125q-2.14453125,0-3.65625-0.2900390625t-2.830078125-0.8525390625l0-4.4296875q1.494140625,0.703125,3.3662109375,1.177734375t3.2958984375,0.474609375q2.91796875,0,2.91796875-1.6875q0-0.6328125-0.38671875-1.0283203125t-1.3359375-0.896484375t-2.53125-1.1689453125q-2.267578125-0.94921875-3.3310546875-1.7578125t-1.546875-1.8544921875t-0.4833984375-2.5751953125q0-2.619140625,2.0302734375-4.0517578125t5.7568359375-1.4326171875q3.55078125,0,6.908203125,1.546875l-1.6171875,3.8671875q-1.4765625-0.6328125-2.759765625-1.037109375t-2.619140625-0.404296875q-2.373046875,0-2.373046875,1.283203125q0,0.720703125,0.7646484375,1.248046875t3.3486328125,1.564453125q2.302734375,0.931640625,3.375,1.740234375t1.58203125,1.86328125t0.509765625,2.513671875z M221.50658203125,40.8984375l2.337890625-2.98828125l5.501953125-5.9765625l6.046875,0l-7.8046875,8.525390625l8.279296875,11.126953125l-6.1875,0l-5.66015625-7.962890625l-2.302734375,1.845703125l0,6.1171875l-5.361328125,0l0-27.3515625l5.361328125,0l0,12.19921875l-0.28125,4.46484375l0.0703125,0z"/><path fill="#c73266" d=""/></svg>
