<svg version="1.1" xmlns="http://www.w3.org/2000/svg" viewBox="-1016.9150561488459 -2735.590327388271 5493.684892257889 4251.736548920524"><desc>Created with Snap</desc><defs></defs><g><g transform="matrix(12.4675,0,0,12.4675,-811.0803,-3125.587)">
<g id="gSkv4t02bg2x">
	<path d="M317.9281,155.65147c-30.98956,7.31404-46.23932-11.77283-62.95764-64.39297
		c-22.81844-71.81998-97.04111-20.6673-137.30415,34.09873c-36.01472,48.98745-100.43337,28.2066-108.71796,96.60006
		C1.05756,287.09979,51.2933,341.39026,114.88862,347.1629c44.93644,4.07898,74.15717-17.45844,113.5048-32.92603
		c50.53844-19.86673,37.44051-0.93326,86.27327,8.58145c60.94122,11.87393,88.18268-44.41559,84.49582-82.9597
		S385.17041,139.7812,317.9281,155.65147z" style="" fill="#5ca4a9"></path>
</g>


<desc>Created with Snap</desc><defs></defs></g><g><g transform="matrix(0.5,0,0,-0.5,0,0)"><path d="M706 637Q710 578 712 513Q714 448 715 381Q716 315 716 248Q716 181 716 117Q717 91 723 73Q729 55 739 42Q749 30 764 21Q779 12 799 5L799 0L497 0L497 5Q532 21 548 45Q564 70 566 121Q567 162 568 203Q570 245 570 283Q571 321 571 353Q572 386 572 409Q572 515 569 603Q567 691 556 753Q546 816 524 850Q502 885 463 885Q427 885 394 866Q361 847 336 812Q312 778 297 730Q283 682 283 624L283 534Q283 486 283 432Q284 379 285 325Q286 271 287 218Q289 165 292 117Q294 91 300 73Q307 55 318 42Q329 30 345 21Q362 12 385 5L385 0L40 0L40 5Q91 21 113 45Q136 70 139 121Q141 169 143 220Q145 272 146 322Q148 373 149 421Q150 469 150 511Q150 614 148 682Q146 751 134 792Q123 833 97 850Q72 867 25 867L25 872L296 992Q288 969 287 938Q286 908 286 876Q306 912 330 934Q354 957 379 969Q404 982 428 987Q453 992 474 992Q538 992 586 955Q635 918 664 846Q687 890 714 918Q742 947 770 963Q799 980 826 986Q854 992 877 992Q994 992 1062 890Q1130 788 1130 592Q1130 528 1130 469Q1130 410 1131 352Q1132 294 1134 236Q1136 178 1139 117Q1141 91 1148 73Q1155 55 1168 42Q1181 30 1199 21Q1217 12 1242 5L1242 0L910 0L910 5Q950 21 968 45Q987 70 989 121Q990 162 991 203Q993 245 993 283Q994 321 994 353Q995 386 995 409Q995 515 992 603Q990 691 978 753Q966 816 942 850Q918 885 876 885Q843 885 812 867Q782 849 759 816Q736 783 721 737Q707 692 706 637ZM1407 517Q1407 610 1406 675Q1406 740 1402 783Q1398 827 1389 852Q1381 877 1364 889Q1348 902 1323 905Q1298 908 1262 908L1262 913L1553 993Q1542 884 1541 752Q1541 621 1541 480Q1541 424 1541 386Q1541 348 1541 314Q1542 280 1544 242Q1546 205 1550 149Q1554 95 1578 58Q1602 22 1653 5L1653 0L1292 0L1292 5Q1343 22 1365 61Q1387 100 1391 153Q1393 199 1395 233Q1398 268 1399 296Q1401 324 1402 348Q1404 372 1405 397Q1406 422 1406 450Q1407 479 1407 517ZM1368 1235Q1368 1273 1394 1299Q1420 1326 1458 1326Q1496 1326 1522 1299Q1549 1273 1549 1235Q1549 1197 1522 1171Q1496 1145 1458 1145Q1420 1145 1394 1171Q1368 1197 1368 1235ZM1939 968L2009 968Q2064 968 2102 969Q2141 971 2166 973Q2195 975 2213 978L2173 848Q2162 859 2141 869Q2123 877 2091 884Q2059 891 2008 891L1936 891Q1935 856 1935 819Q1935 783 1935 745Q1935 658 1935 589Q1936 521 1936 460Q1937 400 1937 340Q1938 281 1938 211Q1938 141 1961 111Q1984 81 2013 81Q2029 81 2045 91Q2061 102 2074 121Q2087 141 2095 167Q2103 194 2103 226Q2103 252 2097 269L2100 271L2227 56Q2162 11 2106 -9Q2051 -28 2003 -28Q1954 -28 1915 -4Q1877 21 1850 61Q1824 101 1810 152Q1796 204 1796 258Q1796 319 1797 365Q1798 412 1798 453Q1799 494 1800 533Q1801 573 1801 621Q1801 709 1801 776Q1801 844 1800 896Q1771 898 1752 900Q1733 902 1722 904Q1709 906 1701 908L1701 968L1799 968Q1797 1026 1794 1058Q1791 1091 1785 1107Q1779 1124 1769 1128Q1760 1132 1746 1132L1746 1137L1977 1247Q1960 1182 1951 1112Q1943 1043 1939 968ZM2530 74Q2587 76 2634 82Q2682 89 2724 109Q2753 123 2766 151Q2780 180 2778 215L2781 215Q2794 158 2803 117Q2812 77 2818 51Q2825 20 2829 0L2258 0L2258 5Q2309 22 2336 60Q2363 99 2368 153Q2378 309 2380 451Q2383 594 2383 721Q2383 833 2381 943Q2380 1054 2368 1174Q2363 1228 2336 1266Q2309 1305 2258 1322L2258 1327L2829 1327Q2825 1307 2818 1276Q2812 1250 2803 1209Q2794 1169 2781 1112L2778 1112Q2780 1147 2766 1175Q2753 1204 2724 1218Q2682 1238 2634 1244Q2587 1251 2530 1253Q2524 1129 2521 1007Q2518 886 2517 765Q2550 765 2580 765Q2611 765 2638 768Q2690 773 2718 799Q2746 825 2754 863L2757 863L2757 589L2754 589Q2746 627 2717 653Q2688 679 2636 684Q2610 687 2581 687Q2552 687 2517 688L2517 684Q2517 535 2520 377Q2524 220 2530 74ZM3559 592Q3559 522 3559 463Q3559 405 3560 349Q3561 293 3563 235Q3565 177 3568 109Q3571 71 3593 44Q3615 18 3661 5L3661 0L3349 0L3349 5Q3384 16 3399 45Q3415 75 3418 113Q3421 207 3422 281Q3424 356 3424 409Q3424 515 3422 603Q3420 691 3410 753Q3400 816 3380 850Q3361 885 3325 885Q3292 885 3263 866Q3234 847 3212 812Q3191 778 3178 730Q3165 682 3165 624L3165 494Q3165 397 3167 301Q3169 206 3174 109Q3177 71 3194 44Q3212 18 3247 5L3247 0L2922 0L2922 5Q2973 16 2995 45Q3018 75 3021 113Q3026 212 3029 299Q3032 387 3032 471Q3032 586 3030 662Q3028 738 3014 783Q3001 829 2971 848Q2942 867 2887 867L2887 872L3158 992Q3150 965 3149 929Q3148 894 3148 856Q3168 898 3192 924Q3216 951 3241 966Q3266 981 3290 986Q3315 992 3336 992Q3440 992 3499 890Q3559 789 3559 592ZM4327 1Q4327 -137 4304 -229Q4282 -321 4242 -377Q4203 -433 4149 -457Q4096 -480 4035 -480Q3999 -480 3957 -466Q3916 -451 3880 -419Q3845 -386 3821 -334Q3798 -282 3798 -208Q3798 -194 3799 -180Q3801 -166 3803 -150L4032 -100L4033 -105Q3985 -134 3962 -172Q3940 -210 3940 -251Q3940 -270 3945 -291Q3950 -311 3961 -328Q3972 -345 3989 -356Q4006 -367 4031 -367Q4049 -367 4066 -364Q4084 -361 4100 -349Q4116 -337 4129 -312Q4142 -286 4151 -242Q4161 -197 4166 -129Q4172 -61 4172 36Q4100 -17 4032 -17Q3968 -17 3914 15Q3860 48 3821 110Q3782 172 3760 261Q3739 350 3739 463Q3739 577 3762 673Q3785 770 3831 840Q3878 911 3947 950Q4017 990 4110 990Q4139 990 4182 983Q4225 977 4270 975L4447 975L4447 970Q4390 951 4364 906Q4338 862 4338 802Q4338 749 4337 681Q4336 613 4335 538Q4334 463 4332 386Q4331 309 4330 238Q4329 167 4328 105Q4327 44 4327 1ZM4173 135L4174 351Q4175 481 4171 619Q4168 758 4162 887Q4150 892 4137 895Q4125 899 4117 899Q4066 899 4024 870Q3982 842 3952 787Q3922 732 3905 650Q3889 569 3889 463Q3889 79 4058 79Q4081 79 4110 88Q4140 98 4173 121L4173 135ZM4895 336L4896 341L5115 321Q5115 231 5089 165Q5064 100 5024 56Q4985 13 4937 -8Q4889 -29 4843 -29Q4777 -29 4720 5Q4663 39 4621 104Q4579 169 4555 264Q4531 359 4531 482Q4531 605 4555 700Q4579 795 4621 860Q4663 925 4720 959Q4777 993 4843 993Q4898 993 4944 963Q4991 934 5026 876Q5061 819 5082 733Q5104 648 5109 537L4686 389Q4699 225 4744 150Q4789 76 4858 76Q4891 76 4913 88Q4936 101 4950 121Q4965 142 4971 167Q4978 193 4978 220Q4978 252 4957 283Q4937 314 4895 336ZM4681 482L4681 478Q4710 489 4753 506Q4796 523 4861 553Q4898 570 4925 587Q4952 604 4973 616Q4963 755 4930 821Q4898 887 4843 887Q4766 887 4723 785Q4681 683 4681 482ZM5164 1267L5455 1347Q5444 1204 5443 1037Q5443 870 5443 684Q5443 548 5443 415Q5444 282 5452 149Q5456 95 5480 58Q5504 22 5555 5L5555 0L5194 0L5194 5Q5245 22 5267 61Q5289 100 5293 153Q5300 314 5304 452Q5309 590 5309 721Q5309 849 5308 938Q5308 1028 5304 1088Q5300 1148 5291 1183Q5283 1218 5266 1235Q5250 1253 5225 1257Q5200 1262 5164 1262L5164 1267ZM5818 77Q5836 77 5851 86Q5867 95 5879 110Q5891 125 5897 143Q5904 162 5904 181Q5904 218 5884 260Q5864 303 5834 349Q5805 395 5770 445Q5735 495 5705 548Q5676 602 5656 658Q5636 715 5636 774Q5636 821 5656 861Q5677 901 5710 930Q5744 959 5787 975Q5831 992 5877 992Q5928 992 5977 970Q6027 948 6066 898L5959 739L5956 741Q5962 757 5962 776Q5962 795 5956 815Q5950 835 5938 851Q5927 867 5911 877Q5896 887 5877 887Q5856 887 5836 879Q5817 872 5802 858Q5788 845 5779 825Q5770 806 5770 783Q5770 746 5790 701Q5811 657 5842 607Q5873 558 5908 504Q5944 451 5975 396Q6006 342 6026 288Q6047 235 6047 185Q6047 137 6028 97Q6010 58 5979 30Q5948 2 5908 -14Q5868 -29 5825 -29Q5768 -29 5713 0Q5658 30 5620 97L5727 226L5730 223Q5721 208 5721 187Q5721 168 5728 148Q5736 129 5748 113Q5761 97 5779 87Q5797 77 5818 77ZM6099 1267L6390 1347Q6379 1204 6378 1036Q6378 869 6378 684L6378 531Q6402 577 6429 630Q6452 675 6481 732Q6510 790 6541 851Q6566 900 6592 940Q6618 981 6650 1010Q6683 1040 6723 1057Q6763 1074 6815 1076L6873 867L6867 861Q6844 885 6819 891Q6795 897 6779 897Q6750 897 6726 875Q6703 854 6680 816Q6655 775 6628 731Q6601 687 6578 650Q6551 607 6525 565L6725 227Q6753 179 6776 154Q6799 129 6831 129Q6859 129 6903 153L6909 148L6818 -60Q6767 -51 6734 -29Q6702 -7 6678 24Q6655 56 6635 96Q6616 137 6589 184L6447 457L6380 342Q6381 298 6382 245Q6384 192 6387 149Q6391 95 6415 58Q6439 22 6490 5L6490 0L6129 0L6129 5Q6180 22 6202 61Q6224 100 6228 153Q6235 314 6239 452Q6244 590 6244 721Q6244 849 6243 938Q6243 1028 6239 1088Q6235 1148 6226 1183Q6218 1218 6201 1235Q6185 1253 6160 1257Q6135 1262 6099 1262L6099 1267Z" style="" fill="#343333"></path></g></g></g></svg>