<svg version="1.1" xmlns="http://www.w3.org/2000/svg" viewBox="-270.2 -1087.2 6150.9 1612.9"><desc>Created with Snap</desc><defs></defs><g><g><g transform="matrix(0.5,0,0,-0.5,0,0)"><path d="M597 0L74 0L74 126L237 154L237 927L74 955L74 1082L414 1082L427 941Q479 1018 561 1060Q643 1102 751 1102Q859 1102 936 1052Q1014 1002 1053 902Q1104 994 1188 1048Q1272 1102 1384 1102Q1550 1102 1646 988Q1742 875 1742 647L1742 154L1905 126L1905 0L1381 0L1381 126L1544 154L1544 649Q1544 809 1489 875Q1434 942 1326 942Q1223 942 1160 869Q1098 797 1088 687L1088 154L1251 126L1251 0L728 0L728 126L891 154L891 649Q891 801 834 871Q778 942 671 942Q581 942 523 905Q465 868 434 801L434 154L597 126L597 0ZM2567 0L2044 0L2044 126L2207 154L2207 927L2044 955L2044 1082L2404 1082L2404 154L2567 126L2567 0ZM2404 1349L2197 1349L2197 1560L2404 1560L2404 1349ZM3085 -17Q2965 -17 2894 53Q2824 124 2824 279L2824 936L2653 936L2653 1082L2824 1082L2824 1343L3021 1343L3021 1082L3256 1082L3256 936L3021 936L3021 279Q3021 201 3052 164Q3083 127 3135 127Q3170 127 3213 133Q3256 140 3280 145L3307 16Q3264 3 3201 -7Q3139 -17 3085 -17ZM4549 0L3440 0L3440 126L3603 154L3603 1301L3440 1329L3440 1456L4518 1456L4518 1106L4360 1106L4338 1304L3800 1304L3800 830L4337 830L4337 675L3800 675L3800 148L4370 148L4392 349L4549 349L4549 0ZM5262 0L4739 0L4739 126L4902 154L4902 927L4739 955L4739 1082L5078 1082L5092 921Q5146 1007 5227 1054Q5309 1102 5413 1102Q5588 1102 5684 999Q5780 897 5780 683L5780 154L5943 126L5943 0L5420 0L5420 126L5583 154L5583 679Q5583 822 5526 882Q5470 942 5354 942Q5269 942 5203 901Q5138 860 5099 789L5099 154L5262 126L5262 0ZM6557 -437Q6479 -437 6388 -416Q6297 -394 6228 -357L6279 -204Q6334 -233 6409 -252Q6484 -271 6555 -271Q6687 -271 6748 -197Q6810 -123 6810 14L6810 117Q6757 49 6683 14Q6609 -21 6513 -21Q6381 -21 6285 44Q6189 110 6137 227Q6086 345 6086 500L6086 521Q6086 695 6137 826Q6189 957 6285 1029Q6381 1102 6515 1102Q6617 1102 6694 1062Q6771 1022 6823 946L6841 1082L7007 1082L7007 14Q7007 -126 6954 -227Q6902 -328 6801 -383Q6701 -437 6557 -437ZM6562 139Q6651 139 6711 179Q6771 220 6810 294L6810 792Q6772 861 6711 901Q6650 942 6564 942Q6470 942 6407 888Q6345 834 6314 739Q6283 645 6283 521L6283 500Q6283 337 6352 238Q6421 139 6562 139ZM7141 956L6977 921L6900 1082L7141 1082L7141 956ZM7732 -21Q7582 -21 7471 47Q7360 116 7299 238Q7239 360 7239 520L7239 564Q7239 718 7302 839Q7366 961 7471 1031Q7577 1102 7702 1102Q7848 1102 7946 1042Q8045 982 8095 873Q8145 765 8145 618L8145 495L7443 495L7440 490Q7442 386 7476 305Q7511 225 7576 179Q7641 133 7732 133Q7832 133 7907 161Q7983 190 8038 240L8115 112Q8057 56 7961 17Q7866 -21 7732 -21ZM7447 654L7449 649L7948 649L7948 675Q7948 753 7920 814Q7893 876 7838 911Q7784 947 7702 947Q7636 947 7582 908Q7528 870 7493 804Q7458 738 7447 654ZM8811 0L8288 0L8288 126L8451 154L8451 1405L8288 1433L8288 1560L8648 1560L8648 154L8811 126L8811 0ZM9389 -21Q9280 -21 9185 1Q9090 23 8983 69L8981 326L9130 326L9167 171Q9223 148 9275 137Q9328 127 9389 127Q9509 127 9561 173Q9613 219 9613 287Q9613 351 9560 395Q9508 440 9370 471Q9174 516 9081 591Q8989 667 8989 793Q8989 881 9040 950Q9091 1020 9182 1061Q9273 1102 9394 1102Q9517 1102 9604 1074Q9692 1046 9757 999L9767 752L9619 752L9587 896Q9552 922 9504 936Q9456 950 9394 950Q9302 950 9244 907Q9187 864 9187 799Q9187 761 9203 733Q9220 705 9267 682Q9314 660 9405 638Q9631 585 9720 503Q9810 421 9810 301Q9810 164 9708 71Q9607 -21 9389 -21ZM10486 0L9963 0L9963 126L10126 154L10126 1405L9963 1433L9963 1560L10323 1560L10323 154L10486 126L10486 0ZM11147 0L10658 0L10658 126L10768 139L10765 143L10452 547L10554 704L10991 150L11147 126L11147 0ZM10922 929L10309 313L10236 468L10706 936L10711 942L10595 955L10595 1082L11061 1082L11061 955L10922 929Z" style="" fill="#072a55"></path></g></g></g></svg>