<svg version="1.1" xmlns="http://www.w3.org/2000/svg" viewBox="-2522.1121421813964 -1231.8720581054688 7370.752728271484 2557.9521423339843"><desc>Created with Snap</desc><defs></defs><g><g transform="matrix(60.736,0,0,60.736,-2214.9121,-923.7002)"><g display="none"><rect x="-331.365" y="-102.667" display="inline" fill="#e0e0e0" width="473.333" height="236" style=""></rect></g><g display="none"><g display="inline"><g><path d="M30,1.984v28H2v-28H30 M32-0.016H0v32h32V-0.016L32-0.016z" style="" fill="#e0e0e0"></path></g></g><g display="inline"><g><polygon fill="#e0e0e0" points="10.918,9.09 15.398,16.831 6.439,16.831    " style=""></polygon></g><g><polygon fill="#e0e0e0" points="21.082,5.59 25.561,13.331 16.602,13.331    " style=""></polygon></g><g><polygon fill="#e0e0e0" points="10.918,18.669 15.398,26.41 6.439,26.41    " style=""></polygon></g><g><polygon points="21.082,15.169 25.561,22.91 16.602,22.91    " style="" fill="#e0e0e0"></polygon></g></g></g><g display="none"><g display="inline"><path fill="#e0e0e0" d="M31,0.984v30H1v-30H31 M32-0.016H0v32h32V-0.016L32-0.016z" style=""></path></g><g display="inline"><path fill="#e0e0e0" d="M10.918,11.087l2.745,4.744h-5.49L10.918,11.087 M10.918,9.09l-4.479,7.741h8.958L10.918,9.09L10.918,9.09    z" style=""></path></g><g display="inline"><path fill="#e0e0e0" d="M21.082,7.587l2.745,4.744h-5.49L21.082,7.587 M21.082,5.59l-4.479,7.741h8.958L21.082,5.59L21.082,5.59z" style=""></path></g><g display="inline"><path fill="#e0e0e0" d="M10.918,20.666l2.745,4.744h-5.49L10.918,20.666 M10.918,18.669L6.439,26.41h8.958L10.918,18.669    L10.918,18.669z" style=""></path></g><g display="inline"><path fill="#e0e0e0" d="M21.082,17.166l2.745,4.744h-5.49L21.082,17.166 M21.082,15.169l-4.479,7.741h8.958L21.082,15.169    L21.082,15.169z" style=""></path></g></g><g display="none"><g display="inline"><g><rect x="0.5" y="0.484" fill="#e0e0e0" width="31" height="31" style=""></rect></g><g><g><path d="M31,0.984v30H1v-30H31 M32-0.016H0v32h32V-0.016L32-0.016z" style="" fill="#e0e0e0"></path></g></g></g><g display="inline"><g><polygon fill="#e0e0e0" points="7.307,16.331 10.918,10.088 14.53,16.331    " style=""></polygon></g><g><g><path d="M10.918,11.087l2.745,4.744h-5.49L10.918,11.087 M10.918,9.09l-4.479,7.741h8.958L10.918,9.09L10.918,9.09z" style="" fill="#e0e0e0"></path></g></g></g><g display="inline"><g><polygon fill="#e0e0e0" points="17.47,12.831 21.082,6.588 24.693,12.831    " style=""></polygon></g><g><path d="M21.082,7.587l2.745,4.744h-5.49L21.082,7.587 M21.082,5.59l-4.479,7.741h8.958L21.082,5.59L21.082,5.59z" style="" fill="#e0e0e0"></path></g></g><g display="inline"><g><polygon fill="#e0e0e0" points="7.307,25.91 10.918,19.667 14.53,25.91    " style=""></polygon></g><g><g><path d="M10.918,20.666l2.745,4.744h-5.49L10.918,20.666 M10.918,18.669L6.439,26.41h8.958L10.918,18.669L10.918,18.669z" style="" fill="#e0e0e0"></path></g></g></g><g display="inline"><g><polygon fill="#e0e0e0" points="17.47,22.41 21.082,16.167 24.693,22.41    " style=""></polygon></g><g><path d="M21.082,17.166l2.745,4.744h-5.49L21.082,17.166 M21.082,15.169l-4.479,7.741h8.958L21.082,15.169L21.082,15.169z" style="" fill="#e0e0e0"></path></g></g></g><g><g><path d="M0,31.984h32v-32H0V31.984z M2,1.984h28v28H2V1.984z" style="" fill="#e0e0e0"></path><polygon points="6.439,16.831 15.398,16.831 10.918,9.09   " style="" fill="#e0e0e0"></polygon><polygon points="16.602,13.331 25.561,13.331 21.082,5.59   " style="" fill="#e0e0e0"></polygon><polygon points="6.439,26.41 15.398,26.41 10.918,18.669   " style="" fill="#e0e0e0"></polygon><polygon points="16.602,22.91 25.561,22.91 21.082,15.169   " style="" fill="#e0e0e0"></polygon></g></g><desc>Created with Snap</desc><defs></defs></g><g><g transform="matrix(1.024,0,0,-1.024,0,0)"><path d="M35 0L35 732L206 732L206 647Q218 694 247 717Q276 740 329 740Q372 740 403 720Q435 701 448 667Q470 705 497 722Q524 740 572 740Q658 740 691 687Q725 635 725 535L723 0L547 0L547 538Q547 609 511 609Q486 609 475 584Q464 560 464 526L464 0L289 0L289 538Q289 569 282 588Q276 607 255 607Q228 607 217 580Q206 554 206 517L206 0L35 0ZM967 781L792 781L792 903L967 903L967 781ZM967 0L792 0L792 732L967 732L967 0ZM1187 -8Q1118 -8 1092 21Q1066 50 1066 114L1066 571L1017 571L1017 704L1066 704L1066 859L1236 859L1236 704L1286 704L1286 571L1236 571L1236 160Q1236 141 1239 132Q1242 123 1255 123Q1265 123 1274 124Q1283 125 1286 125L1286 5Q1271 1 1242 -4Q1214 -8 1187 -8ZM1699 0L1344 0L1344 859L1688 859L1688 693L1519 693L1519 526L1681 526L1681 364L1519 364L1519 167L1699 167L1699 0ZM1753 0L1753 732L1928 732L1928 639Q1939 684 1966 712Q1993 740 2038 740Q2112 740 2147 694Q2183 649 2183 565L2183 0L2011 0L2011 547Q2011 571 2001 588Q1992 605 1972 605Q1945 605 1936 580Q1928 556 1928 515L1928 0L1753 0ZM2449 -107Q2371 -107 2326 -95Q2282 -82 2239 -47L2299 54Q2363 16 2426 16Q2467 16 2488 42Q2509 68 2509 113L2509 153Q2488 78 2398 78Q2323 78 2287 129Q2252 180 2252 265L2252 540Q2252 637 2284 688Q2317 740 2398 740Q2445 740 2472 716Q2500 693 2509 650L2509 732L2688 732L2688 124Q2688 1 2631 -53Q2574 -107 2449 -107ZM2468 210Q2509 210 2509 284L2509 545Q2509 567 2497 587Q2485 607 2467 607Q2444 607 2436 590Q2428 574 2428 545L2428 284Q2428 251 2436 230Q2444 210 2468 210ZM2961 -8Q2848 -8 2799 54Q2750 116 2750 239L2750 533Q2750 634 2808 687Q2866 740 2970 740Q3181 740 3181 533L3181 480Q3181 400 3179 350L2925 350L2925 208Q2925 170 2933 148Q2941 127 2967 127Q2987 127 2995 139Q3004 151 3005 166Q3007 182 3007 212L3007 283L3181 283L3181 241Q3181 113 3131 52Q3082 -8 2961 -8ZM2924 437L3007 437L3007 531Q3007 610 2968 610Q2924 610 2924 531L2924 437ZM3422 0L3244 0L3244 864L3422 864L3422 0ZM3693 -8Q3476 -8 3476 212L3477 270L3652 270L3653 184Q3653 158 3663 144Q3673 131 3696 131Q3731 131 3731 188Q3731 230 3714 254Q3698 278 3662 305L3569 377Q3521 414 3500 453Q3479 493 3479 565Q3479 621 3508 660Q3538 700 3587 720Q3636 740 3696 740Q3909 740 3909 528L3909 514L3728 514L3728 542Q3728 568 3719 586Q3711 605 3691 605Q3673 605 3663 594Q3654 584 3654 566Q3654 526 3685 504L3793 425Q3851 382 3882 331Q3913 281 3913 204Q3913 102 3855 47Q3797 -8 3693 -8ZM4140 0L3967 0L3967 864L4140 864L4140 480L4224 732L4405 732L4295 414L4435 0L4249 0L4140 345L4140 0Z" style="" fill="#195190"></path></g></g><g transform="matrix(0.75,0,0,0.75,5.888,874.4961)"><g transform="matrix(1.024,0,0,-1.024,0,0)"><path d="M277 0L39 0L39 53L117 53L117 510L39 510L39 563L317 563Q420 563 474 522Q528 481 528 403Q528 321 472 277Q417 233 312 233L237 233L237 286L309 286Q374 286 409 316Q444 346 444 402Q444 455 413 482Q383 510 326 510L199 510L199 53L277 53L277 0ZM817 0L598 0L598 53L674 53L674 340L598 340L598 393L747 393L747 276L733 278Q744 323 761 349Q779 375 801 386Q824 398 848 398Q868 398 888 393Q908 388 928 378L910 311Q893 322 876 327Q859 333 841 333Q803 333 775 301Q748 270 748 211L747 53L817 53L817 0ZM1186 -12Q1123 -12 1075 14Q1027 40 1000 87Q974 134 974 197Q974 260 1000 306Q1027 353 1075 378Q1123 404 1186 404Q1250 404 1298 378Q1346 353 1373 306Q1400 260 1400 198Q1400 135 1373 88Q1346 41 1298 14Q1250 -12 1186 -12ZM1186 46Q1228 46 1259 65Q1290 84 1307 118Q1324 152 1324 198Q1324 243 1307 276Q1290 309 1259 327Q1228 346 1186 346Q1145 346 1114 327Q1084 309 1067 275Q1050 242 1050 197Q1050 152 1067 118Q1084 84 1114 65Q1145 46 1186 46ZM1662 -12Q1599 -12 1551 14Q1503 40 1476 87Q1450 134 1450 197Q1450 260 1476 306Q1503 353 1551 378Q1599 404 1662 404Q1726 404 1774 378Q1822 353 1849 306Q1876 260 1876 198Q1876 135 1849 88Q1822 41 1774 14Q1726 -12 1662 -12ZM1662 46Q1704 46 1735 65Q1766 84 1783 118Q1800 152 1800 198Q1800 243 1783 276Q1766 309 1735 327Q1704 346 1662 346Q1621 346 1590 327Q1560 309 1543 275Q1526 242 1526 197Q1526 152 1543 118Q1560 84 1590 65Q1621 46 1662 46ZM2195 0L1942 0L1942 53L2020 53L2020 340L1943 340L1943 393L2020 393L2020 477Q2020 513 2032 540Q2045 567 2071 581Q2098 596 2138 596Q2179 596 2211 576Q2243 556 2247 504L2190 488Q2186 514 2175 529Q2165 544 2141 544Q2119 544 2106 527Q2094 511 2094 476L2094 393L2214 393L2214 340L2094 340L2094 53L2195 53L2195 0ZM2471 0L2252 0L2252 53L2328 53L2328 340L2252 340L2252 393L2401 393L2401 276L2387 278Q2398 323 2415 349Q2433 375 2455 386Q2478 398 2502 398Q2522 398 2542 393Q2562 388 2582 378L2564 311Q2547 322 2530 327Q2513 333 2495 333Q2457 333 2429 301Q2402 270 2402 211L2401 53L2471 53L2471 0ZM2850 -12Q2788 -12 2737 14Q2687 40 2657 87Q2628 134 2628 196Q2628 260 2656 306Q2684 353 2731 378Q2778 404 2836 404Q2896 404 2939 379Q2983 354 3006 308Q3029 262 3029 200L3029 181L2693 181L2694 227L2956 227Q2956 266 2940 293Q2925 321 2898 335Q2871 350 2836 350Q2799 350 2769 332Q2739 315 2721 282Q2704 250 2704 204Q2704 155 2722 119Q2740 84 2772 64Q2805 45 2847 45Q2892 45 2930 63Q2968 81 2996 108L3022 63Q2995 32 2952 10Q2909 -12 2850 -12ZM3238 -11Q3177 -11 3140 23Q3103 57 3103 106Q3103 151 3124 178Q3146 205 3182 217Q3218 229 3261 229Q3295 229 3330 223Q3366 218 3400 209L3370 204L3370 257Q3370 304 3345 326Q3320 348 3277 348Q3249 348 3211 338Q3174 329 3142 312L3120 360Q3155 382 3199 392Q3243 403 3278 403Q3330 403 3367 386Q3404 369 3423 337Q3443 306 3443 264L3443 53L3505 53L3505 0L3378 0L3372 56L3400 56Q3361 22 3324 5Q3287 -11 3238 -11ZM3249 40Q3286 40 3323 56Q3360 72 3400 105L3370 69L3370 185L3393 167Q3367 175 3334 180Q3301 185 3266 185Q3231 185 3202 169Q3173 154 3173 110Q3173 80 3193 60Q3213 40 3249 40ZM3749 -11Q3695 -11 3649 13Q3604 38 3576 85Q3548 132 3548 197Q3548 264 3574 309Q3601 355 3645 379Q3689 403 3741 403Q3783 403 3824 387Q3866 372 3898 344L3874 335L3874 521L3804 521L3804 573L3948 573L3948 53L4010 53L4010 0L3874 0L3874 52L3897 48Q3868 20 3831 4Q3795 -11 3749 -11ZM3765 45Q3804 45 3837 60Q3871 75 3899 100L3874 66L3874 326L3899 290Q3868 317 3829 332Q3791 347 3756 347Q3718 347 3688 329Q3659 311 3642 276Q3625 242 3625 191Q3625 144 3644 111Q3663 79 3694 62Q3726 45 3765 45ZM4275 0L4055 0L4055 53L4131 53L4131 340L4056 340L4056 393L4204 393L4204 53L4275 53L4275 0ZM4158 479Q4136 479 4120 493Q4104 508 4104 530Q4104 552 4120 566Q4136 581 4158 581Q4181 581 4196 566Q4212 552 4212 530Q4212 508 4196 493Q4181 479 4158 479ZM4542 0L4322 0L4322 53L4398 53L4398 340L4322 340L4322 393L4471 393L4471 339L4443 336Q4485 365 4527 384Q4569 403 4613 403Q4667 403 4704 369Q4742 336 4742 272L4742 53L4815 53L4815 0L4604 0L4604 53L4669 53L4669 258Q4669 299 4649 322Q4629 345 4594 345Q4558 345 4521 329Q4484 313 4442 285L4471 317L4471 53L4542 53L4542 0ZM5052 -188Q5017 -188 4979 -182Q4941 -175 4904 -164L4919 -106Q4954 -116 4987 -123Q5021 -129 5050 -129Q5111 -129 5145 -101Q5180 -73 5180 -14L5180 56L5203 60Q5173 29 5131 13Q5090 -3 5049 -3Q4994 -3 4948 21Q4902 45 4875 90Q4848 136 4848 200Q4848 266 4874 311Q4901 356 4946 379Q4992 402 5047 402Q5087 402 5131 385Q5175 368 5199 339L5179 339L5179 393L5320 393L5320 340L5254 340L5254 -9Q5254 -73 5227 -113Q5201 -152 5155 -170Q5110 -188 5052 -188ZM5056 348Q5018 348 4988 330Q4959 313 4942 279Q4925 245 4925 195Q4925 149 4943 117Q4962 85 4993 68Q5025 52 5064 52Q5099 52 5137 67Q5176 83 5204 111L5180 74L5179 321L5204 289Q5173 315 5133 331Q5093 348 5056 348Z" style="" fill="#195190"></path></g></g></g></svg>
